<svg version="1.2" xmlns="http://www.w3.org/2000/svg" viewBox="0 0 2200 2200" width="2200" height="2200">
	<style>
		.s0 { fill: #ffffff } 
	</style>
	<g id="Objects">
		<g id="&lt;Group&gt;">
			<path id="&lt;Path&gt;" class="s0" d="m1934.38 1014.37c0 145.8-28.56 287.28-84.9 420.49-54.4 128.62-132.3 244.14-231.5 343.34-99.2 99.23-214.73 177.11-343.38 231.53-133.18 56.32-274.66 84.88-420.49 84.88-126.02 0-249.48-21.51-366.9-63.91-4.81-1.74-8.6-5.44-10.48-10.19-1.87-4.74-1.61-10.05 0.71-14.58 76.28-148.74 171.39-285.51 282.71-406.57 45.97-50 65.2-69.43 114.28-115.52 5.24-4.91 12.93-6.18 19.48-3.22 100.8 45.75 236.33 46.61 347.95 23.58-122.15-6.45-218.84-27.09-288.34-61.68-5.21-2.6-8.81-7.59-9.64-13.36-0.84-5.77 1.24-11.58 5.51-15.53l20.47-18.95c92.27-85.31 187.7-173.51 268.21-272.54 88.63-108.99 157.49-219.68 207.76-334.39-14.62 24.09-30.1 48.2-46.4 72.23-64.81 95.54-137.58 182.67-210.44 251.99-4.25 4.05-10.22 5.72-15.94 4.51-5.72-1.24-10.48-5.19-12.7-10.6-1.72-4.2-31.02-75.93-53.61-158.99-1.57 66.29 9.76 133.08 33.67 194.86 2.66 6.86 0.81 14.63-4.63 19.56-55.36 50.14-113.22 99.23-169.16 146.66-82.96 70.36-168.72 143.13-247.43 220.37-4.71 4.6-11.59 6.22-17.87 4.22-6.27-2.02-10.9-7.33-12.04-13.83-1.06-6.08-18.8-109.15-19-220.8-27.35 99.89-38.58 204.27-32.76 307.75 0.25 4.68-1.34 9.29-4.48 12.78-95.21 106.87-163.39 210.72-208.47 317.49-2.56 6.02-8.18 10.15-14.68 10.78-6.53 0.61-12.8-2.4-16.42-7.82-58.16-87.23-98.54-187.93-116.78-291.2-18.35-103.86-15.06-214.63 9.51-320.33 24.59-105.81 70.05-204.6 131.46-285.69 104.26-137.71 249.13-225.93 389.24-311.24q14.45-8.8 28.82-17.56c151.42-92.58 323.56-204.68 450.12-363.95 55.58-69.95 100.99-149.98 131.33-231.39 1.9-5.06 5.97-8.98 11.08-10.65 5.11-1.7 10.73-0.97 15.23 1.99 147.73 96.35 270.92 228.72 356.28 382.8 88.07 159.03 134.62 339.75 134.62 522.68z"/>
		</g>
	</g>
</svg>